<svg width="250" height="100" viewBox="0 0 350 151" fill="none" xmlns="http://www.w3.org/2000/svg">
<g filter="url(#filter0_d_3_447)">
<rect x="4" width="342" height="143" rx="22" fill="url(#paint0_linear_3_447)"/>
<path d="M53.125 39.6875H59.2812V85H53.125V39.6875ZM76.0625 56.7188C77.6458 54.9688 79.3854 53.6667 81.2812 52.8125C83.1771 51.9583 85.3021 51.5312 87.6562 51.5312C91.1562 51.5312 93.8333 52.5417 95.6875 54.5625C97.5417 56.5833 98.4688 59.5208 98.4688 63.375V85H92.4375V63.8125C92.4375 61.375 91.9375 59.6042 90.9375 58.5C89.9375 57.3958 88.3333 56.8438 86.125 56.8438C84.1667 56.8438 82.3333 57.2812 80.625 58.1562C78.9167 59.0312 77.5417 60.2396 76.5 61.7812V85H70.5V52.0938H75.375L76.0625 56.7188ZM126.281 83.9062C123.802 84.8854 121.5 85.375 119.375 85.375C116.208 85.375 113.792 84.5625 112.125 82.9375C110.479 81.2917 109.656 78.8854 109.656 75.7188V57.2812H103.906V52.0938H109.969L111.25 42.6875H115.688V52.0938H125.719V57.2812H115.688V74.75C115.688 76.625 116.052 77.9688 116.781 78.7812C117.531 79.5938 118.76 80 120.469 80C121.969 80 123.531 79.7292 125.156 79.1875L126.281 83.9062ZM136.656 69.625C136.823 73.0417 137.74 75.6562 139.406 77.4688C141.073 79.2812 143.417 80.1875 146.438 80.1875C148.104 80.1875 149.708 80.0104 151.25 79.6562C152.812 79.3021 154.583 78.6979 156.562 77.8438L158.469 82.3125C156.198 83.4167 154.073 84.2292 152.094 84.75C150.115 85.25 148.125 85.5 146.125 85.5C141.167 85.5 137.323 84.0104 134.594 81.0312C131.865 78.0521 130.5 73.875 130.5 68.5C130.5 63.125 131.844 58.9583 134.531 56C137.219 53.0208 141.021 51.5312 145.938 51.5312C150.542 51.5312 153.969 52.9167 156.219 55.6875C158.49 58.4583 159.625 62.6562 159.625 68.2812V69.625H136.656ZM153.406 64.5938C153.24 62.0312 152.51 60.1042 151.219 58.8125C149.948 57.5 148.188 56.8438 145.938 56.8438C140.938 56.8438 137.948 59.4271 136.969 64.5938H153.406ZM172.875 56.7188C174.021 55.0104 175.365 53.7188 176.906 52.8438C178.448 51.9688 180.135 51.5312 181.969 51.5312C183.198 51.5312 184.625 51.7604 186.25 52.2188L185.156 58.125C183.073 57.7083 181.667 57.4896 180.938 57.4688C179.104 57.4688 177.583 57.8125 176.375 58.5C175.188 59.1875 174.167 60.3021 173.312 61.8438V85H167.312V52.0938H172.125L172.875 56.7188ZM197.25 56.7188C198.833 54.9688 200.573 53.6667 202.469 52.8125C204.365 51.9583 206.49 51.5312 208.844 51.5312C212.344 51.5312 215.021 52.5417 216.875 54.5625C218.729 56.5833 219.656 59.5208 219.656 63.375V85H213.625V63.8125C213.625 61.375 213.125 59.6042 212.125 58.5C211.125 57.3958 209.521 56.8438 207.312 56.8438C205.354 56.8438 203.521 57.2812 201.812 58.1562C200.104 59.0312 198.729 60.2396 197.688 61.7812V85H191.688V52.0938H196.562L197.25 56.7188ZM229.438 39.9375H235.438V46.0938H229.438V39.9375ZM229.438 52.0938H235.438V85H229.438V52.0938ZM247.344 47.6875C247.344 44.1875 248.26 41.4792 250.094 39.5625C251.927 37.6458 254.51 36.6875 257.844 36.6875C259.115 36.6875 260.344 36.8125 261.531 37.0625C262.74 37.3125 264.198 37.7812 265.906 38.4688L263.719 43.1562C261.51 42.4271 259.698 42.0625 258.281 42.0625C256.698 42.0625 255.479 42.5208 254.625 43.4375C253.792 44.3542 253.375 45.625 253.375 47.25V52.0938H262.719V57.2812H253.375V82.875C253.375 85.0833 253.208 87.1042 252.875 88.9375C252.562 90.7917 252.042 92.7396 251.312 94.7812H247.344V57.2812H241.594V52.0938H247.344V47.6875ZM276.125 85L263.625 52.0938H269.594L273.812 63.5625L274.906 66.5L279 77.9688L280.344 73.9375C280.552 73.2917 281.01 71.9167 281.719 69.8125C282.427 67.6875 283.167 65.6042 283.938 63.5625L288.219 52.0938H294.219L275.938 100.094H270.5L276.125 85Z" fill="#FAF0E6"/>
</g>
<defs>
<filter id="filter0_d_3_447" x="0" y="0" width="350" height="151" filterUnits="userSpaceOnUse" color-interpolation-filters="sRGB">
<feFlood flood-opacity="0" result="BackgroundImageFix"/>
<feColorMatrix in="SourceAlpha" type="matrix" values="0 0 0 0 0 0 0 0 0 0 0 0 0 0 0 0 0 0 127 0" result="hardAlpha"/>
<feOffset dy="4"/>
<feGaussianBlur stdDeviation="2"/>
<feComposite in2="hardAlpha" operator="out"/>
<feColorMatrix type="matrix" values="0 0 0 0 0 0 0 0 0 0 0 0 0 0 0 0 0 0 0.25 0"/>
<feBlend mode="normal" in2="BackgroundImageFix" result="effect1_dropShadow_3_447"/>
<feBlend mode="normal" in="SourceGraphic" in2="effect1_dropShadow_3_447" result="shape"/>
</filter>
<linearGradient id="paint0_linear_3_447" x1="175" y1="143" x2="175" y2="-2.24575e-06" gradientUnits="userSpaceOnUse">
<stop stop-color="#352F44"/>
<stop offset="1" stop-color="#5C5470"/>
</linearGradient>
</defs>
</svg>
